<mxfile host="app.diagrams.net" agent="Mozilla/5.0 (X11; Linux x86_64) AppleWebKit/537.36 (KHTML, like Gecko) Chrome/127.0.0.0 Safari/537.36" version="24.7.10">
  <diagram name="Page-1" id="qIIuJrk47lqO7817uzSL">
    <mxGraphModel dx="1234" dy="1117" grid="1" gridSize="10" guides="1" tooltips="1" connect="1" arrows="1" fold="1" page="1" pageScale="1" pageWidth="850" pageHeight="1100" math="0" shadow="0">
      <root>
        <mxCell id="0" />
        <mxCell id="1" parent="0" />
        <mxCell id="TqHkE-GuLO8kLXTITl4S-2" value="&lt;font color=&quot;#ff3333&quot;&gt;VPC 10.10.0.0./16&lt;/font&gt;" style="points=[[0,0],[0.25,0],[0.5,0],[0.75,0],[1,0],[1,0.25],[1,0.5],[1,0.75],[1,1],[0.75,1],[0.5,1],[0.25,1],[0,1],[0,0.75],[0,0.5],[0,0.25]];outlineConnect=0;gradientColor=none;html=1;whiteSpace=wrap;fontSize=12;fontStyle=0;container=1;pointerEvents=0;collapsible=0;recursiveResize=0;shape=mxgraph.aws4.group;grIcon=mxgraph.aws4.group_vpc2;strokeColor=#8C4FFF;fillColor=none;verticalAlign=top;align=left;spacingLeft=30;fontColor=#AAB7B8;dashed=0;" vertex="1" parent="1">
          <mxGeometry x="40" y="40" width="760" height="460" as="geometry" />
        </mxCell>
        <mxCell id="TqHkE-GuLO8kLXTITl4S-3" value="&lt;font color=&quot;#7ea6e0&quot;&gt;Public Subnet 10.10.0.0/24&lt;/font&gt;" style="sketch=0;outlineConnect=0;gradientColor=none;html=1;whiteSpace=wrap;fontSize=12;fontStyle=0;shape=mxgraph.aws4.group;grIcon=mxgraph.aws4.group_vpc;strokeColor=#879196;fillColor=none;verticalAlign=top;align=left;spacingLeft=30;fontColor=#879196;dashed=0;" vertex="1" parent="TqHkE-GuLO8kLXTITl4S-2">
          <mxGeometry x="40" y="30" width="320" height="400" as="geometry" />
        </mxCell>
        <mxCell id="TqHkE-GuLO8kLXTITl4S-5" value="&lt;font color=&quot;#97d077&quot;&gt;Private Subnet 10.10.1.0/24&lt;/font&gt;" style="sketch=0;outlineConnect=0;gradientColor=none;html=1;whiteSpace=wrap;fontSize=12;fontStyle=0;shape=mxgraph.aws4.group;grIcon=mxgraph.aws4.group_vpc;strokeColor=#879196;fillColor=none;verticalAlign=top;align=left;spacingLeft=30;fontColor=#879196;dashed=0;" vertex="1" parent="TqHkE-GuLO8kLXTITl4S-2">
          <mxGeometry x="410" y="40" width="310" height="400" as="geometry" />
        </mxCell>
        <mxCell id="TqHkE-GuLO8kLXTITl4S-6" value="Public Instance" style="sketch=0;outlineConnect=0;fontColor=#232F3E;gradientColor=none;fillColor=#ED7100;strokeColor=none;dashed=0;verticalLabelPosition=bottom;verticalAlign=top;align=center;html=1;fontSize=12;fontStyle=0;aspect=fixed;pointerEvents=1;shape=mxgraph.aws4.a1_instance;" vertex="1" parent="TqHkE-GuLO8kLXTITl4S-2">
          <mxGeometry x="170" y="230" width="90" height="90" as="geometry" />
        </mxCell>
        <mxCell id="TqHkE-GuLO8kLXTITl4S-9" value="Routing Table" style="outlineConnect=0;dashed=0;verticalLabelPosition=bottom;verticalAlign=top;align=center;html=1;shape=mxgraph.aws3.route_table;fillColor=#F58536;gradientColor=none;" vertex="1" parent="TqHkE-GuLO8kLXTITl4S-2">
          <mxGeometry x="50" y="330" width="75" height="69" as="geometry" />
        </mxCell>
        <mxCell id="TqHkE-GuLO8kLXTITl4S-10" value="&lt;span style=&quot;color: rgb(22, 25, 31); font-family: &amp;quot;Amazon Ember&amp;quot;, &amp;quot;Helvetica Neue&amp;quot;, Roboto, Arial, sans-serif; text-align: start; text-wrap: wrap; background-color: rgb(242, 243, 243);&quot;&gt;&lt;font style=&quot;font-size: 10px;&quot;&gt;S3:&amp;nbsp;&lt;/font&gt;&lt;/span&gt;&lt;div&gt;&lt;span style=&quot;color: rgb(22, 25, 31); font-family: &amp;quot;Amazon Ember&amp;quot;, &amp;quot;Helvetica Neue&amp;quot;, Roboto, Arial, sans-serif; text-align: start; text-wrap: wrap; background-color: rgb(242, 243, 243);&quot;&gt;&lt;font style=&quot;font-size: 10px;&quot;&gt;voxia-hqzmwuar&lt;/font&gt;&lt;/span&gt;&lt;/div&gt;" style="outlineConnect=0;dashed=0;verticalLabelPosition=bottom;verticalAlign=top;align=center;html=1;shape=mxgraph.aws3.s3;fillColor=#E05243;gradientColor=none;" vertex="1" parent="1">
          <mxGeometry x="80" y="570" width="76.5" height="93" as="geometry" />
        </mxCell>
      </root>
    </mxGraphModel>
  </diagram>
</mxfile>
